<?xml version="1.0" encoding="UTF-8" standalone="no"?>
<!-- Created with Inkscape (http://www.inkscape.org/) -->

<svg
   width="100mm"
   height="100mm"
   viewBox="0 0 100 100"
   version="1.1"
   id="svg1"
   inkscape:version="1.3.2 (091e20e, 2023-11-25, custom)"
   sodipodi:docname="gitlab.svg"
   xml:space="preserve"
   xmlns:inkscape="http://www.inkscape.org/namespaces/inkscape"
   xmlns:sodipodi="http://sodipodi.sourceforge.net/DTD/sodipodi-0.dtd"
   xmlns="http://www.w3.org/2000/svg"
   xmlns:svg="http://www.w3.org/2000/svg"><sodipodi:namedview
     id="namedview1"
     pagecolor="#ffffff"
     bordercolor="#000000"
     borderopacity="0.25"
     inkscape:showpageshadow="2"
     inkscape:pageopacity="0.0"
     inkscape:pagecheckerboard="false"
     inkscape:deskcolor="#d1d1d1"
     inkscape:document-units="mm"
     inkscape:zoom="1.025523"
     inkscape:cx="359.81639"
     inkscape:cy="155.04284"
     inkscape:window-width="1920"
     inkscape:window-height="1010"
     inkscape:window-x="1913"
     inkscape:window-y="-6"
     inkscape:window-maximized="1"
     inkscape:current-layer="layer1" /><defs
     id="defs1" /><g
     inkscape:label="Layer 1"
     inkscape:groupmode="layer"
     id="layer1"><rect
       style="display:inline;fill:#36363b;stroke:#e6e6e7;stroke-width:0;stroke-linecap:round;stroke-linejoin:round;paint-order:stroke fill markers"
       id="rect1"
       width="99.84539"
       height="99.84539"
       x="0.12899914"
       y="0.25799838"
       ry="15.608905" /><g
       id="g3"
       inkscape:label="miarki"
       style="display:none"><rect
         style="fill:#74000d;fill-opacity:1;stroke:#e6e6e7;stroke-width:0;stroke-linecap:round;stroke-linejoin:round;paint-order:stroke fill markers"
         id="rect2"
         width="37.92577"
         height="57.017651"
         x="-28.121826"
         y="21.15587"
         ry="0" /><rect
         style="fill:#74000d;fill-opacity:1;stroke:#e6e6e7;stroke-width:0;stroke-linecap:round;stroke-linejoin:round;paint-order:stroke fill markers"
         id="rect2-2"
         width="37.92577"
         height="57.017651"
         x="90.184807"
         y="21.603645"
         ry="0" /><rect
         style="fill:#74000d;fill-opacity:1;stroke:#e6e6e7;stroke-width:0;stroke-linecap:round;stroke-linejoin:round;paint-order:stroke fill markers"
         id="rect2-6"
         width="37.92577"
         height="57.017651"
         x="31.868204"
         y="-47.216736"
         ry="0" /><rect
         style="fill:#74000d;fill-opacity:1;stroke:#e6e6e7;stroke-width:0;stroke-linecap:round;stroke-linejoin:round;paint-order:stroke fill markers"
         id="rect2-6-8"
         width="37.92577"
         height="57.017651"
         x="31.743414"
         y="90.067574"
         ry="0" /></g><g
       id="g1"
       transform="matrix(0.33624212,0,0,0.33624212,6.9875169,10.420798)"><path
         d="M 128.075,236.075 175.179,91.105 H 80.97 l 47.104,144.97 z"
         fill="#e24329"
         id="path1" /><path
         d="M 128.075,236.074 80.97,91.104 H 14.956 Z"
         fill="#fc6d26"
         id="path2" /><path
         d="M 14.956,91.104 0.642,135.16 a 9.752,9.752 0 0 0 3.542,10.903 L 128.075,236.075 14.955,91.105 Z"
         fill="#fca326"
         id="path3" /><path
         d="M 14.956,91.105 H 80.97 L 52.601,3.79 c -1.46,-4.493 -7.816,-4.492 -9.275,0 z"
         fill="#e24329"
         id="path4" /><path
         d="m 128.075,236.074 47.104,-144.97 h 66.015 l -113.12,144.97 z"
         fill="#fc6d26"
         id="path5" /><path
         d="m 241.194,91.104 14.314,44.056 a 9.752,9.752 0 0 1 -3.543,10.903 l -123.89,90.012 113.119,-144.97 z"
         fill="#fca326"
         id="path6" /><path
         d="M 241.194,91.105 H 175.179 L 203.549,3.79 c 1.46,-4.493 7.816,-4.492 9.275,0 z"
         fill="#e24329"
         id="path7" /></g></g></svg>
