<?xml version="1.0" encoding="UTF-8" standalone="no"?>
<!-- Created with Inkscape (http://www.inkscape.org/) -->

<svg
   width="100mm"
   height="100mm"
   viewBox="0 0 100 100"
   version="1.1"
   id="svg1"
   inkscape:version="1.3.2 (091e20e, 2023-11-25, custom)"
   sodipodi:docname="jira.svg"
   xml:space="preserve"
   xmlns:inkscape="http://www.inkscape.org/namespaces/inkscape"
   xmlns:sodipodi="http://sodipodi.sourceforge.net/DTD/sodipodi-0.dtd"
   xmlns="http://www.w3.org/2000/svg"
   xmlns:svg="http://www.w3.org/2000/svg"><sodipodi:namedview
     id="namedview1"
     pagecolor="#ffffff"
     bordercolor="#000000"
     borderopacity="0.25"
     inkscape:showpageshadow="2"
     inkscape:pageopacity="0.0"
     inkscape:pagecheckerboard="false"
     inkscape:deskcolor="#d1d1d1"
     inkscape:document-units="mm"
     inkscape:zoom="1.4503086"
     inkscape:cx="180.65121"
     inkscape:cy="186.16728"
     inkscape:window-width="1920"
     inkscape:window-height="1010"
     inkscape:window-x="1913"
     inkscape:window-y="-6"
     inkscape:window-maximized="1"
     inkscape:current-layer="g1" /><defs
     id="defs1"><linearGradient
       x1="191.29538"
       y1="61.656293"
       x2="139.14647"
       y2="115.75265"
       id="linearGradient-1"
       gradientTransform="scale(1.00294,0.99706862)"
       gradientUnits="userSpaceOnUse"><stop
         stop-color="#0052CC"
         offset="18%"
         id="stop1" /><stop
         stop-color="#2684FF"
         offset="100%"
         id="stop2" /></linearGradient><linearGradient
       x1="134.11237"
       y1="123.45523"
       x2="73.809663"
       y2="182.43702"
       id="linearGradient-2"
       gradientTransform="scale(1.00294,0.99706859)"
       gradientUnits="userSpaceOnUse"><stop
         stop-color="#0052CC"
         offset="18%"
         id="stop3" /><stop
         stop-color="#2684FF"
         offset="100%"
         id="stop4" /></linearGradient></defs><g
     inkscape:label="Layer 1"
     inkscape:groupmode="layer"
     id="layer1"><rect
       style="fill:#36363b;stroke:#e6e6e7;stroke-width:0;stroke-linecap:round;stroke-linejoin:round;paint-order:stroke fill markers"
       id="rect1"
       width="99.84539"
       height="99.84539"
       x="0.12899914"
       y="0.25799838"
       ry="15.608905" /><g
       id="g3"
       inkscape:label="miarki"
       style="display:none"><rect
         style="fill:#74000d;fill-opacity:1;stroke:#e6e6e7;stroke-width:0;stroke-linecap:round;stroke-linejoin:round;paint-order:stroke fill markers"
         id="rect2"
         width="37.92577"
         height="57.017651"
         x="-28.121826"
         y="21.15587"
         ry="0" /><rect
         style="fill:#74000d;fill-opacity:1;stroke:#e6e6e7;stroke-width:0;stroke-linecap:round;stroke-linejoin:round;paint-order:stroke fill markers"
         id="rect2-2"
         width="37.92577"
         height="57.017651"
         x="90.184807"
         y="21.603645"
         ry="0" /><rect
         style="fill:#74000d;fill-opacity:1;stroke:#e6e6e7;stroke-width:0;stroke-linecap:round;stroke-linejoin:round;paint-order:stroke fill markers"
         id="rect2-6"
         width="37.92577"
         height="57.017651"
         x="31.868204"
         y="-47.216736"
         ry="0" /><rect
         style="fill:#74000d;fill-opacity:1;stroke:#e6e6e7;stroke-width:0;stroke-linecap:round;stroke-linejoin:round;paint-order:stroke fill markers"
         id="rect2-6-8"
         width="37.92577"
         height="57.017651"
         x="31.743414"
         y="90.067574"
         ry="0" /></g><g
       id="g1"
       transform="matrix(2.3921233,0,0,2.3921233,-305.76832,-289.0337)"><path
         d="m 220.4,213.7 c 23,-10 32.8,-27.3 32.8,-27.3 21.5,-29.3 14.2,-60.2 14.2,-60.2 -13.7,29.8 -26.2,38 -26.2,38 33.7,-51.3 0.2,-82.3 0.2,-82.3 13.7,29.2 -4.5,64.8 -4.5,64.8 -15.3,32.2 -37,43.7 -37,43.7 24.2,4.5 42,-11.8 42,-11.8 -34.7,37.5 -72.3,35.7 -72.3,35.7 15.8,17.7 39.5,16.2 39.5,16.2 -31,7.3 -60.1,-3 -84,-22.9 -4.5,-3.7 -8.8,-7.7 -12.8,-12 0,0 -3.6,-3.8 -4.3,-4.8 l -0.1,-0.1 c -0.5,18.5 18.8,35.7 18.8,35.7 -24.2,-10 -35.3,-31.7 -35.3,-31.7 0,0 -16.3,-27.8 -4.5,-59.5 11.8,-31.7 47.5,-38.5 47.5,-38.5 29.5,14.3 54.5,18.8 54.5,18.8 52.7,8.8 49.7,-17 49.7,-17 0.5,-22.2 -33,-45.8 -33,-45.8 C 145.9,8.4 91.9,37 91.9,37 45.2,57.7 31.4,103 31.4,103 c -2.2,7.1 -4.2,14.1 -5.5,21.4 -5.1,29.7 2.6,57.8 19.3,82.8 26,38.8 68.2,52.2 68.2,52.2 62.5,21.2 105.2,-10 105.2,-10 39.3,-27 47.2,-58.2 47.2,-58.2 -31.7,24.8 -45.4,22.5 -45.4,22.5 z M 171.6,67.8 c 3,0 5.4,2.4 5.4,5.4 0,3 -2.4,5.4 -5.4,5.4 -3,0 -5.4,-2.4 -5.4,-5.4 0,-3 2.4,-5.4 5.4,-5.4 z"
         fill="url(#a)"
         id="path17" /><path
         d="M 238.5,98.4 C 239,76.2 205.5,52.6 205.5,52.6 145.8,8.4 91.8,37 91.8,37 45.1,57.7 31.3,103 31.3,103 c -2.7,7.7 -5.1,19.5 -5.1,19.5 -2.9,14.8 -1.6,28.5 -1.6,28.5 1.2,13.1 4.1,21.9 4.1,21.9 3,9.4 4.4,12.3 4.4,12.3 -0.1,-0.3 -0.6,-2.5 -0.6,-2.5 0,0 -4.2,-20.2 -0.3,-39.6 0,0 3.4,-20.2 17.2,-35.8 0,0 22.4,-31.9 64.1,-19.4 0,0 9,3.2 12.1,4.8 3.1,1.5 8.5,3.8 8.5,3.8 29.5,14.3 54.5,18.8 54.5,18.8 52.9,8.9 49.9,-16.9 49.9,-16.9 z M 171.6,78.7 c -3,0 -5.4,-2.4 -5.4,-5.4 0,-3 2.4,-5.4 5.4,-5.4 3,0 5.4,2.4 5.4,5.4 0,3 -2.4,5.4 -5.4,5.4 z"
         fill="url(#b)"
         id="path18" /><path
         d="M 137.4,58.2 103.3,47.6 c -0.2,0 -1.2,-0.5 -3,0 0,0 -20.1,5.1 -16.6,16.1 0,0 2.1,6.9 7.8,13.6 L 129,75.5 Z"
         fill="url(#c)"
         id="path19" /><g
         id="g6"
         transform="matrix(0.13182797,0,0,0.13182797,131.91707,124.97528)"><path
           d="M 244.65778,0 H 121.70667 c 0,14.720105 5.84753,28.837312 16.25622,39.245998 10.40869,10.408685 24.52589,16.256224 39.246,16.256224 h 22.64889 v 21.866667 c 0.0196,30.625271 24.8414,55.447051 55.46666,55.466671 V 10.666667 C 255.32444,4.7756293 250.54881,0 244.65778,0 Z"
           fill="#2684ff"
           id="path4" /><path
           d="M 183.82222,61.262222 H 60.871111 c 0.01961,30.625267 24.8414,55.447058 55.466669,55.466668 h 22.64889 v 21.93778 c 0.0392,30.62525 24.87694,55.43113 55.50222,55.43111 V 71.928889 c 0,-5.891037 -4.77563,-10.666667 -10.66667,-10.666667 z"
           fill="url(#linearGradient-1)"
           id="path5"
           style="fill:url(#linearGradient-1)" /><path
           d="M 122.95111,122.48889 H 0 c 0,30.65303 24.849191,55.50222 55.502222,55.50222 h 22.72 v 21.86667 c 0.01954,30.59754 24.798068,55.40787 55.395558,55.46666 V 133.15556 c 0,-5.89104 -4.77563,-10.66667 -10.66667,-10.66667 z"
           fill="url(#linearGradient-2)"
           id="path6"
           style="fill:url(#linearGradient-2)" /></g></g></g></svg>
