<?xml version="1.0" encoding="UTF-8" standalone="no"?>
<!-- Created with Inkscape (http://www.inkscape.org/) -->

<svg
   width="100mm"
   height="100mm"
   viewBox="0 0 100 100"
   version="1.1"
   id="svg1"
   inkscape:version="1.3.2 (091e20e, 2023-11-25, custom)"
   sodipodi:docname="python.svg"
   xml:space="preserve"
   xmlns:inkscape="http://www.inkscape.org/namespaces/inkscape"
   xmlns:sodipodi="http://sodipodi.sourceforge.net/DTD/sodipodi-0.dtd"
   xmlns="http://www.w3.org/2000/svg"
   xmlns:svg="http://www.w3.org/2000/svg"><sodipodi:namedview
     id="namedview1"
     pagecolor="#ffffff"
     bordercolor="#000000"
     borderopacity="0.25"
     inkscape:showpageshadow="2"
     inkscape:pageopacity="0.0"
     inkscape:pagecheckerboard="false"
     inkscape:deskcolor="#d1d1d1"
     inkscape:document-units="mm"
     inkscape:zoom="0.72515429"
     inkscape:cx="71.708877"
     inkscape:cy="62.055759"
     inkscape:window-width="1920"
     inkscape:window-height="1010"
     inkscape:window-x="1913"
     inkscape:window-y="-6"
     inkscape:window-maximized="1"
     inkscape:current-layer="layer1" /><defs
     id="defs1"><linearGradient
       id="a"
       x1="19.075"
       y1="18.782"
       x2="34.898"
       y2="34.658"
       gradientUnits="userSpaceOnUse"><stop
         stop-color="#387EB8"
         id="stop2" /><stop
         offset="1"
         stop-color="#366994"
         id="stop3" /></linearGradient><linearGradient
       id="b"
       x1="28.809"
       y1="28.882"
       x2="45.803"
       y2="45.163"
       gradientUnits="userSpaceOnUse"><stop
         stop-color="#FFE052"
         id="stop4" /><stop
         offset="1"
         stop-color="#FFC331"
         id="stop5" /></linearGradient></defs><g
     inkscape:label="Layer 1"
     inkscape:groupmode="layer"
     id="layer1"><rect
       style="fill:#36363b;stroke:#e6e6e7;stroke-width:0;stroke-linecap:round;stroke-linejoin:round;paint-order:stroke fill markers"
       id="rect1"
       width="99.84539"
       height="99.84539"
       x="0.12899914"
       y="0.25799838"
       ry="15.608905" /><g
       id="g3"
       inkscape:label="miarki"
       style="display:none"><rect
         style="fill:#74000d;fill-opacity:1;stroke:#e6e6e7;stroke-width:0;stroke-linecap:round;stroke-linejoin:round;paint-order:stroke fill markers"
         id="rect2"
         width="37.92577"
         height="57.017651"
         x="-28.121826"
         y="21.15587"
         ry="0" /><rect
         style="fill:#74000d;fill-opacity:1;stroke:#e6e6e7;stroke-width:0;stroke-linecap:round;stroke-linejoin:round;paint-order:stroke fill markers"
         id="rect2-2"
         width="37.92577"
         height="57.017651"
         x="90.184807"
         y="21.603645"
         ry="0" /><rect
         style="fill:#74000d;fill-opacity:1;stroke:#e6e6e7;stroke-width:0;stroke-linecap:round;stroke-linejoin:round;paint-order:stroke fill markers"
         id="rect2-6"
         width="37.92577"
         height="57.017651"
         x="31.868204"
         y="-47.216736"
         ry="0" /><rect
         style="fill:#74000d;fill-opacity:1;stroke:#e6e6e7;stroke-width:0;stroke-linecap:round;stroke-linejoin:round;paint-order:stroke fill markers"
         id="rect2-6-8"
         width="37.92577"
         height="57.017651"
         x="31.743414"
         y="90.067574"
         ry="0" /></g><g
       id="g1"
       transform="matrix(2.3921233,0,0,2.3921233,-305.76832,-289.03371)"><g
         style="fill:none"
         id="g2"
         transform="matrix(1.0587668,0,0,1.0587668,114.86598,108.0126)"><path
           d="m 31.885,16 c -8.124,0 -7.617,3.523 -7.617,3.523 l 0.01,3.65 h 7.752 v 1.095 H 21.197 c 0,0 -5.197,-0.59 -5.197,7.608 0,8.196 4.537,7.906 4.537,7.906 h 2.708 v -3.804 c 0,0 -0.146,-4.537 4.465,-4.537 h 7.688 c 0,0 4.32,0.07 4.32,-4.175 v -7.019 c 0,0 0.656,-4.247 -7.833,-4.247 z m -4.275,2.454 c 0.771,0 1.395,0.624 1.395,1.395 0,0.771 -0.624,1.395 -1.395,1.395 a 1.393,1.393 0 0 1 -1.395,-1.395 c 0,-0.771 0.624,-1.395 1.395,-1.395 z"
           fill="url(#a)"
           id="path1"
           style="fill:url(#a)" /><path
           d="m 32.115,47.833 c 8.124,0 7.617,-3.523 7.617,-3.523 l -0.01,-3.65 H 31.97 v -1.095 h 10.832 c 0,0 5.198,0.59 5.198,-7.607 0,-8.197 -4.537,-7.906 -4.537,-7.906 h -2.708 v 3.803 c 0,0 0.146,4.537 -4.465,4.537 h -7.688 c 0,0 -4.32,-0.07 -4.32,4.175 v 7.019 c 0,0 -0.656,4.247 7.833,4.247 z m 4.275,-2.454 a 1.393,1.393 0 0 1 -1.395,-1.395 c 0,-0.77 0.624,-1.394 1.395,-1.394 0.771,0 1.395,0.623 1.395,1.394 0,0.772 -0.624,1.395 -1.395,1.395 z"
           fill="url(#b)"
           id="path2"
           style="fill:url(#b)" /></g></g></g></svg>
