<?xml version="1.0" encoding="UTF-8" standalone="no"?>
<!-- Created with Inkscape (http://www.inkscape.org/) -->

<svg
   width="100mm"
   height="100mm"
   viewBox="0 0 100 100"
   version="1.1"
   id="svg1"
   inkscape:version="1.3.2 (091e20e, 2023-11-25, custom)"
   sodipodi:docname="redux.svg"
   xml:space="preserve"
   xmlns:inkscape="http://www.inkscape.org/namespaces/inkscape"
   xmlns:sodipodi="http://sodipodi.sourceforge.net/DTD/sodipodi-0.dtd"
   xmlns="http://www.w3.org/2000/svg"
   xmlns:svg="http://www.w3.org/2000/svg"><sodipodi:namedview
     id="namedview1"
     pagecolor="#ffffff"
     bordercolor="#000000"
     borderopacity="0.25"
     inkscape:showpageshadow="2"
     inkscape:pageopacity="0.0"
     inkscape:pagecheckerboard="false"
     inkscape:deskcolor="#d1d1d1"
     inkscape:document-units="mm"
     inkscape:zoom="1.4503086"
     inkscape:cx="194.44138"
     inkscape:cy="202.71548"
     inkscape:window-width="1920"
     inkscape:window-height="1010"
     inkscape:window-x="1913"
     inkscape:window-y="-6"
     inkscape:window-maximized="1"
     inkscape:current-layer="layer1" /><defs
     id="defs1" /><g
     inkscape:label="Layer 1"
     inkscape:groupmode="layer"
     id="layer1"><rect
       style="fill:#36363b;stroke:#e6e6e7;stroke-width:0;stroke-linecap:round;stroke-linejoin:round;paint-order:stroke fill markers"
       id="rect1"
       width="99.84539"
       height="99.84539"
       x="0.12899914"
       y="0.25799838"
       ry="15.608905" /><g
       id="g3"
       inkscape:label="miarki"
       style="display:none"><rect
         style="fill:#74000d;fill-opacity:1;stroke:#e6e6e7;stroke-width:0;stroke-linecap:round;stroke-linejoin:round;paint-order:stroke fill markers"
         id="rect2"
         width="37.92577"
         height="57.017651"
         x="-28.121826"
         y="21.15587"
         ry="0" /><rect
         style="fill:#74000d;fill-opacity:1;stroke:#e6e6e7;stroke-width:0;stroke-linecap:round;stroke-linejoin:round;paint-order:stroke fill markers"
         id="rect2-2"
         width="37.92577"
         height="57.017651"
         x="90.184807"
         y="21.603645"
         ry="0" /><rect
         style="fill:#74000d;fill-opacity:1;stroke:#e6e6e7;stroke-width:0;stroke-linecap:round;stroke-linejoin:round;paint-order:stroke fill markers"
         id="rect2-6"
         width="37.92577"
         height="57.017651"
         x="31.868204"
         y="-47.216736"
         ry="0" /><rect
         style="fill:#74000d;fill-opacity:1;stroke:#e6e6e7;stroke-width:0;stroke-linecap:round;stroke-linejoin:round;paint-order:stroke fill markers"
         id="rect2-6-8"
         width="37.92577"
         height="57.017651"
         x="31.743414"
         y="90.067574"
         ry="0" /></g><g
       id="g1"
       transform="matrix(2.3921233,0,0,2.3921233,-305.76832,-289.0337)"><path
         d="m 220.4,213.7 c 23,-10 32.8,-27.3 32.8,-27.3 21.5,-29.3 14.2,-60.2 14.2,-60.2 -13.7,29.8 -26.2,38 -26.2,38 33.7,-51.3 0.2,-82.3 0.2,-82.3 13.7,29.2 -4.5,64.8 -4.5,64.8 -15.3,32.2 -37,43.7 -37,43.7 24.2,4.5 42,-11.8 42,-11.8 -34.7,37.5 -72.3,35.7 -72.3,35.7 15.8,17.7 39.5,16.2 39.5,16.2 -31,7.3 -60.1,-3 -84,-22.9 -4.5,-3.7 -8.8,-7.7 -12.8,-12 0,0 -3.6,-3.8 -4.3,-4.8 l -0.1,-0.1 c -0.5,18.5 18.8,35.7 18.8,35.7 -24.2,-10 -35.3,-31.7 -35.3,-31.7 0,0 -16.3,-27.8 -4.5,-59.5 11.8,-31.7 47.5,-38.5 47.5,-38.5 29.5,14.3 54.5,18.8 54.5,18.8 52.7,8.8 49.7,-17 49.7,-17 0.5,-22.2 -33,-45.8 -33,-45.8 C 145.9,8.4 91.9,37 91.9,37 45.2,57.7 31.4,103 31.4,103 c -2.2,7.1 -4.2,14.1 -5.5,21.4 -5.1,29.7 2.6,57.8 19.3,82.8 26,38.8 68.2,52.2 68.2,52.2 62.5,21.2 105.2,-10 105.2,-10 39.3,-27 47.2,-58.2 47.2,-58.2 -31.7,24.8 -45.4,22.5 -45.4,22.5 z M 171.6,67.8 c 3,0 5.4,2.4 5.4,5.4 0,3 -2.4,5.4 -5.4,5.4 -3,0 -5.4,-2.4 -5.4,-5.4 0,-3 2.4,-5.4 5.4,-5.4 z"
         fill="url(#a)"
         id="path17" /><path
         d="M 238.5,98.4 C 239,76.2 205.5,52.6 205.5,52.6 145.8,8.4 91.8,37 91.8,37 45.1,57.7 31.3,103 31.3,103 c -2.7,7.7 -5.1,19.5 -5.1,19.5 -2.9,14.8 -1.6,28.5 -1.6,28.5 1.2,13.1 4.1,21.9 4.1,21.9 3,9.4 4.4,12.3 4.4,12.3 -0.1,-0.3 -0.6,-2.5 -0.6,-2.5 0,0 -4.2,-20.2 -0.3,-39.6 0,0 3.4,-20.2 17.2,-35.8 0,0 22.4,-31.9 64.1,-19.4 0,0 9,3.2 12.1,4.8 3.1,1.5 8.5,3.8 8.5,3.8 29.5,14.3 54.5,18.8 54.5,18.8 52.9,8.9 49.9,-16.9 49.9,-16.9 z M 171.6,78.7 c -3,0 -5.4,-2.4 -5.4,-5.4 0,-3 2.4,-5.4 5.4,-5.4 3,0 5.4,2.4 5.4,5.4 0,3 -2.4,5.4 -5.4,5.4 z"
         fill="url(#b)"
         id="path18" /><path
         d="M 137.4,58.2 103.3,47.6 c -0.2,0 -1.2,-0.5 -3,0 0,0 -20.1,5.1 -16.6,16.1 0,0 2.1,6.9 7.8,13.6 L 129,75.5 Z"
         fill="url(#c)"
         id="path19" /><path
         d="m 155.87836,148.24618 c 1.30585,-0.13522 2.29653,-1.26091 2.25147,-2.61197 -0.0448,-1.35091 -1.1708,-2.43172 -2.5217,-2.43172 h -0.0899 c -1.39611,0.0451 -2.47681,1.21588 -2.43173,2.61184 0.0451,0.67553 0.31516,1.26092 0.72045,1.66621 -1.53103,3.01724 -3.87262,5.22379 -7.38502,7.07013 -2.38666,1.26091 -4.8633,1.71125 -7.33995,1.39611 -2.02641,-0.27025 -3.60252,-1.17081 -4.59334,-2.65706 -1.44088,-2.20654 -1.57594,-4.59331 -0.36008,-6.97997 0.85563,-1.71128 2.20641,-2.97221 3.06204,-3.60266 -0.18006,-0.5854 -0.45033,-1.57609 -0.58539,-2.29654 -6.52951,4.72838 -5.85399,11.12299 -3.87262,14.14012 1.48595,2.25174 4.50308,3.64771 7.83536,3.64771 0.90056,0 1.80112,-0.0902 2.70182,-0.31517 5.764,-1.12588 10.13203,-4.54841 12.60867,-9.63703 z m 7.92548,-5.58403 c -3.42239,-4.00793 -8.46582,-6.21447 -14.22982,-6.21447 h -0.72044 c -0.40529,-0.81058 -1.26093,-1.35106 -2.20655,-1.35106 h -0.0901 c -1.39582,0.0451 -2.47649,1.21586 -2.43159,2.61196 0.0451,1.35094 1.17082,2.43174 2.52172,2.43174 h 0.0899 c 0.99069,-0.0451 1.84632,-0.67552 2.20656,-1.53116 h 0.81057 c 3.4224,0 6.66455,0.99067 9.59169,2.92713 2.25146,1.4861 3.87261,3.42253 4.77317,5.76415 0.76551,1.89137 0.72046,3.73769 -0.0902,5.31391 -1.26078,2.38665 -3.37721,3.69265 -6.16916,3.69265 -1.80126,0 -3.5124,-0.54049 -4.4131,-0.94578 -0.49527,0.45036 -1.39595,1.17081 -2.02642,1.62129 1.93644,0.90056 3.91781,1.39598 5.80905,1.39598 4.32298,0 7.52022,-2.3868 8.73606,-4.77346 1.30586,-2.61198 1.21573,-7.11517 -2.16148,-10.94288 z m -22.87576,6.34939 c 0.0451,1.35107 1.17082,2.43174 2.52172,2.43174 h 0.0902 c 1.39598,-0.0448 2.47665,-1.21587 2.43159,-2.61184 -0.0448,-1.35104 -1.17079,-2.4317 -2.52171,-2.4317 h -0.0899 c -0.0902,0 -0.22536,0 -0.31517,0.0448 -1.8463,-3.06217 -2.6118,-6.39447 -2.34157,-9.99712 0.18006,-2.70195 1.08067,-5.04369 2.65674,-6.98013 1.30586,-1.66623 3.82757,-2.47677 5.53882,-2.52171 4.77319,-0.0902 6.79948,5.85413 6.93466,8.24092 0.5854,0.13499 1.5761,0.45036 2.25163,0.67551 -0.54049,-7.29514 -5.04358,-11.07791 -9.3664,-11.07791 -4.05285,0 -7.79044,2.92712 -9.27651,7.25024 -2.07137,5.76414 -0.72045,11.3031 1.80124,15.67126 -0.22513,0.31517 -0.36021,0.81058 -0.31517,1.30598 z"
         fill="#764abc"
         id="path1"
         style="stroke-width:0.138229" /></g></g></svg>
