<?xml version="1.0" encoding="UTF-8" standalone="no"?>
<!-- Created with Inkscape (http://www.inkscape.org/) -->

<svg
   width="100mm"
   height="100mm"
   viewBox="0 0 100 100"
   version="1.1"
   id="svg1"
   inkscape:version="1.3.2 (091e20e, 2023-11-25, custom)"
   sodipodi:docname="rxjs.svg"
   xml:space="preserve"
   xmlns:inkscape="http://www.inkscape.org/namespaces/inkscape"
   xmlns:sodipodi="http://sodipodi.sourceforge.net/DTD/sodipodi-0.dtd"
   xmlns="http://www.w3.org/2000/svg"
   xmlns:svg="http://www.w3.org/2000/svg"><sodipodi:namedview
     id="namedview1"
     pagecolor="#ffffff"
     bordercolor="#000000"
     borderopacity="0.25"
     inkscape:showpageshadow="2"
     inkscape:pageopacity="0.0"
     inkscape:pagecheckerboard="false"
     inkscape:deskcolor="#d1d1d1"
     inkscape:document-units="mm"
     inkscape:zoom="1.0255231"
     inkscape:cx="90.685431"
     inkscape:cy="290.58342"
     inkscape:window-width="1920"
     inkscape:window-height="1010"
     inkscape:window-x="1913"
     inkscape:window-y="-6"
     inkscape:window-maximized="1"
     inkscape:current-layer="layer1" /><defs
     id="defs1"><style
       id="style1">.cls-1{fill:#e32487;}.cls-2{fill:url(#linear-gradient);}.cls-3{fill:url(#radial-gradient);}.cls-4{fill:url(#linear-gradient-2);}</style><linearGradient
       id="linear-gradient"
       x1="20.63"
       y1="271.4"
       x2="29.8"
       y2="281.15"
       gradientTransform="matrix(9.04,0,0,-9.04,-105.34,2674.33)"
       gradientUnits="userSpaceOnUse"><stop
         offset="0"
         stop-color="#e01f84"
         id="stop1" /><stop
         offset="0.4"
         stop-color="#df1d85"
         id="stop2" /><stop
         offset="0.77"
         stop-color="#942c87"
         id="stop3" /><stop
         offset="1"
         stop-color="#5e3089"
         id="stop4" /></linearGradient><radialGradient
       id="radial-gradient"
       cx="30.57"
       cy="295.62"
       r="8.96"
       gradientTransform="matrix(9.04,0.02,0.02,-7.56,-109.33,2343.24)"
       gradientUnits="userSpaceOnUse"><stop
         offset="0"
         stop-color="#e01f84"
         id="stop5" /><stop
         offset="0.14"
         stop-color="#de1f86"
         id="stop6" /><stop
         offset="0.28"
         stop-color="#d72185"
         id="stop7" /><stop
         offset="0.43"
         stop-color="#ca2486"
         id="stop8" /><stop
         offset="0.59"
         stop-color="#b72886"
         id="stop9" /><stop
         offset="0.74"
         stop-color="#9f2b88"
         id="stop10" /><stop
         offset="0.89"
         stop-color="#7d2e88"
         id="stop11" /><stop
         offset="1"
         stop-color="#5e3089"
         id="stop12" /></radialGradient><linearGradient
       id="linear-gradient-2"
       x1="22.82"
       y1="285.06"
       x2="26.81"
       y2="285.06"
       gradientTransform="matrix(9.04,0,0,-9.04,-105.34,2674.33)"
       gradientUnits="userSpaceOnUse"><stop
         offset="0"
         stop-color="#e01f84"
         id="stop13" /><stop
         offset="0.24"
         stop-color="#da2085"
         id="stop14" /><stop
         offset="0.66"
         stop-color="#c82185"
         id="stop15" /><stop
         offset="1"
         stop-color="#b52485"
         id="stop16" /></linearGradient><radialGradient
       id="radial-gradient-1"
       cx="30.57"
       cy="295.62"
       r="8.96"
       gradientTransform="matrix(9.04,0.02,0.02,-7.56,-109.33,2343.24)"
       gradientUnits="userSpaceOnUse"><stop
         offset="0"
         stop-color="#e01f84"
         id="stop5-2" /><stop
         offset="0.14"
         stop-color="#de1f86"
         id="stop6-5" /><stop
         offset="0.28"
         stop-color="#d72185"
         id="stop7-9" /><stop
         offset="0.43"
         stop-color="#ca2486"
         id="stop8-4" /><stop
         offset="0.59"
         stop-color="#b72886"
         id="stop9-8" /><stop
         offset="0.74"
         stop-color="#9f2b88"
         id="stop10-3" /><stop
         offset="0.89"
         stop-color="#7d2e88"
         id="stop11-2" /><stop
         offset="1"
         stop-color="#5e3089"
         id="stop12-3" /></radialGradient></defs><g
     inkscape:label="Layer 1"
     inkscape:groupmode="layer"
     id="layer1"><rect
       style="fill:#36363b;stroke:#e6e6e7;stroke-width:0;stroke-linecap:round;stroke-linejoin:round;paint-order:stroke fill markers"
       id="rect1"
       width="99.84539"
       height="99.84539"
       x="0.12899914"
       y="0.25799838"
       ry="15.608905" /><g
       id="g3"
       inkscape:label="miarki"
       style="display:none"><rect
         style="fill:#74000d;fill-opacity:1;stroke:#e6e6e7;stroke-width:0;stroke-linecap:round;stroke-linejoin:round;paint-order:stroke fill markers"
         id="rect2"
         width="37.92577"
         height="57.017651"
         x="-28.121826"
         y="21.15587"
         ry="0" /><rect
         style="fill:#74000d;fill-opacity:1;stroke:#e6e6e7;stroke-width:0;stroke-linecap:round;stroke-linejoin:round;paint-order:stroke fill markers"
         id="rect2-2"
         width="37.92577"
         height="57.017651"
         x="90.184807"
         y="21.603645"
         ry="0" /><rect
         style="fill:#74000d;fill-opacity:1;stroke:#e6e6e7;stroke-width:0;stroke-linecap:round;stroke-linejoin:round;paint-order:stroke fill markers"
         id="rect2-6"
         width="37.92577"
         height="57.017651"
         x="31.868204"
         y="-47.216736"
         ry="0" /><rect
         style="fill:#74000d;fill-opacity:1;stroke:#e6e6e7;stroke-width:0;stroke-linecap:round;stroke-linejoin:round;paint-order:stroke fill markers"
         id="rect2-6-8"
         width="37.92577"
         height="57.017651"
         x="31.743414"
         y="90.067574"
         ry="0" /></g><g
       id="g4"
       transform="matrix(0.47709458,0,0,0.4938134,-16.74408,-23.886846)"><path
         class="cls-1"
         d="m 65.24,172.36 a 71,71 0 0 1 -2.46,-33.92 117.41,117.41 0 0 1 3.66,-14.26 c 0,0 9.2,-30.19 40.32,-44 0,0 10.72,-5.67 26.85,-6.06 a 34.6,34.6 0 0 0 -3.6,-3.07 c -7.6,-5.06 -18.92,-6.73 -25.79,0.4 -2.06,2.13 -3.79,4.46 -5.73,6.6 a 20.63,20.63 0 0 1 -7.93,5.53 c -2.66,1 -5.33,0.8 -8.06,1.26 a 17.4,17.4 0 0 0 -7.93,3.27 10.53,10.53 0 0 0 -3.73,7.73 c -0.27,2.4 -0.2,4.86 -0.33,7.26 -0.34,7.06 -2.6,9.06 -7.67,13 a 20.5,20.5 0 0 0 -5.26,6 c -4,7.07 2.4,14.4 2.73,21.53 a 10.68,10.68 0 0 1 -0.6,4.33 c -0.53,1.53 -1.6,2.53 -2.46,3.8 a 7.79,7.79 0 0 0 -1.67,5.73 18.36,18.36 0 0 0 2.4,5.79 54.59,54.59 0 0 0 6.86,8.8 c 0.14,0 0.27,0.13 0.4,0.27"
         id="path16-1"
         style="fill:#e32487" /><path
         class="cls-2"
         d="m 192.38,197.94 c 15.33,-6.66 21.86,-18.19 21.86,-18.19 a 52.41,52.41 0 0 0 9.46,-40.11 c -9.13,19.85 -17.46,25.36 -17.46,25.36 22.46,-34.18 0.14,-54.84 0.14,-54.84 9.12,19.46 -3,43.18 -3,43.18 -10.2,21.45 -24.66,29.12 -24.66,29.12 16.13,3 28,-7.87 28,-7.87 -23.12,25 -48.18,23.79 -48.18,23.79 10.53,11.8 26.32,10.8 26.32,10.8 -20.65,4.86 -40,-2 -56,-15.26 a 87,87 0 0 1 -8.53,-8 c 0,0 -2.4,-2.53 -2.87,-3.2 l -0.06,-0.06 c -0.34,12.33 12.52,23.79 12.52,23.79 -16.12,-6.67 -23.52,-21.13 -23.52,-21.13 0,0 -10.86,-18.52 -3,-39.65 7.86,-21.13 31.68,-25.67 31.68,-25.67 a 156,156 0 0 0 36.31,12.53 c 35.12,5.86 33.12,-11.33 33.12,-11.33 0.33,-14.79 -22,-30.52 -22,-30.52 C 142.74,61.14 106.76,80.2 106.76,80.2 c -31.12,13.79 -40.32,44 -40.32,44 a 117.41,117.41 0 0 0 -3.66,14.26 c -3.4,19.79 1.73,38.51 12.86,55.17 17.36,25.84 45.44,34.77 45.44,34.77 41.65,14.12 70.1,-6.67 70.1,-6.67 26.19,-18 31.45,-38.78 31.45,-38.78 -21.12,16.53 -30.25,15 -30.25,15 z m -32.52,-97.22 a 3.6,3.6 0 1 1 -3.59,3.6 3.59,3.59 0 0 1 3.59,-3.6 z"
         id="path17-9"
         style="fill:url(#linear-gradient)" /><path
         class="cls-3"
         d="m 204.44,121.11 c 0.34,-14.79 -22,-30.52 -22,-30.52 C 142.67,61.14 106.69,80.2 106.69,80.2 c -31.12,13.79 -40.32,44 -40.32,44 a 125.1,125.1 0 0 0 -3.39,13 74.16,74.16 0 0 0 -1.07,19 72.65,72.65 0 0 0 2.73,14.6 76,76 0 0 0 2.93,8.2 c -0.06,-0.2 -0.4,-1.66 -0.4,-1.66 0,0 -2.79,-13.46 -0.2,-26.39 0,0 2.27,-13.46 11.47,-23.86 0,0 14.92,-21.25 42.71,-12.92 0,0 6,2.13 8.06,3.19 2.06,1.06 5.67,2.54 5.67,2.54 a 155.68,155.68 0 0 0 36.31,12.52 c 35.25,5.88 33.25,-11.31 33.25,-11.31 z M 159.86,108 a 3.6,3.6 0 1 1 3.6,-3.6 3.58,3.58 0 0 1 -3.6,3.6 z"
         id="path18-5"
         style="fill:url(#radial-gradient-1)" /><path
         class="cls-4"
         d="m 137.07,94.33 -22.72,-7.07 a 3.48,3.48 0 0 0 -2,0 c 0,0 -13.35,3.4 -11.06,10.74 a 28.32,28.32 0 0 0 5.2,9.06 l 25,-1.2 z"
         id="path19-8"
         style="fill:url(#linear-gradient-2)" /></g></g></svg>
