<?xml version="1.0" encoding="UTF-8" standalone="no"?>
<!-- Created with Inkscape (http://www.inkscape.org/) -->

<svg
   width="100mm"
   height="100mm"
   viewBox="0 0 100 100"
   version="1.1"
   id="svg1"
   inkscape:version="1.3.2 (091e20e, 2023-11-25, custom)"
   sodipodi:docname="swagger.svg"
   xml:space="preserve"
   xmlns:inkscape="http://www.inkscape.org/namespaces/inkscape"
   xmlns:sodipodi="http://sodipodi.sourceforge.net/DTD/sodipodi-0.dtd"
   xmlns="http://www.w3.org/2000/svg"
   xmlns:svg="http://www.w3.org/2000/svg"><sodipodi:namedview
     id="namedview1"
     pagecolor="#ffffff"
     bordercolor="#000000"
     borderopacity="0.25"
     inkscape:showpageshadow="2"
     inkscape:pageopacity="0.0"
     inkscape:pagecheckerboard="false"
     inkscape:deskcolor="#d1d1d1"
     inkscape:document-units="mm"
     inkscape:zoom="1.4503086"
     inkscape:cx="157.89743"
     inkscape:cy="166.86104"
     inkscape:window-width="1920"
     inkscape:window-height="1010"
     inkscape:window-x="1913"
     inkscape:window-y="-6"
     inkscape:window-maximized="1"
     inkscape:current-layer="layer1" /><defs
     id="defs1" /><g
     inkscape:label="Layer 1"
     inkscape:groupmode="layer"
     id="layer1"><rect
       style="display:inline;fill:#36363b;stroke:#e6e6e7;stroke-width:0;stroke-linecap:round;stroke-linejoin:round;paint-order:stroke fill markers"
       id="rect1"
       width="99.84539"
       height="99.84539"
       x="0.12899914"
       y="0.25799838"
       ry="15.608905" /><g
       id="g3"
       inkscape:label="miarki"
       style="display:none"><rect
         style="fill:#74000d;fill-opacity:1;stroke:#e6e6e7;stroke-width:0;stroke-linecap:round;stroke-linejoin:round;paint-order:stroke fill markers"
         id="rect2"
         width="37.92577"
         height="57.017651"
         x="-28.121826"
         y="21.15587"
         ry="0" /><rect
         style="fill:#74000d;fill-opacity:1;stroke:#e6e6e7;stroke-width:0;stroke-linecap:round;stroke-linejoin:round;paint-order:stroke fill markers"
         id="rect2-2"
         width="37.92577"
         height="57.017651"
         x="90.184807"
         y="21.603645"
         ry="0" /><rect
         style="fill:#74000d;fill-opacity:1;stroke:#e6e6e7;stroke-width:0;stroke-linecap:round;stroke-linejoin:round;paint-order:stroke fill markers"
         id="rect2-6"
         width="37.92577"
         height="57.017651"
         x="31.868204"
         y="-47.216736"
         ry="0" /><rect
         style="fill:#74000d;fill-opacity:1;stroke:#e6e6e7;stroke-width:0;stroke-linecap:round;stroke-linejoin:round;paint-order:stroke fill markers"
         id="rect2-6-8"
         width="37.92577"
         height="57.017651"
         x="31.743414"
         y="90.067574"
         ry="0" /></g><g
       id="g1"
       transform="matrix(2.7957431,0,0,2.7957431,-359.52671,-340.24559)"><path
         d="m 220.4,213.7 c 23,-10 32.8,-27.3 32.8,-27.3 21.5,-29.3 14.2,-60.2 14.2,-60.2 -13.7,29.8 -26.2,38 -26.2,38 33.7,-51.3 0.2,-82.3 0.2,-82.3 13.7,29.2 -4.5,64.8 -4.5,64.8 -15.3,32.2 -37,43.7 -37,43.7 24.2,4.5 42,-11.8 42,-11.8 -34.7,37.5 -72.3,35.7 -72.3,35.7 15.8,17.7 39.5,16.2 39.5,16.2 -31,7.3 -60.1,-3 -84,-22.9 -4.5,-3.7 -8.8,-7.7 -12.8,-12 0,0 -3.6,-3.8 -4.3,-4.8 l -0.1,-0.1 c -0.5,18.5 18.8,35.7 18.8,35.7 -24.2,-10 -35.3,-31.7 -35.3,-31.7 0,0 -16.3,-27.8 -4.5,-59.5 11.8,-31.7 47.5,-38.5 47.5,-38.5 29.5,14.3 54.5,18.8 54.5,18.8 52.7,8.8 49.7,-17 49.7,-17 0.5,-22.2 -33,-45.8 -33,-45.8 C 145.9,8.4 91.9,37 91.9,37 45.2,57.7 31.4,103 31.4,103 c -2.2,7.1 -4.2,14.1 -5.5,21.4 -5.1,29.7 2.6,57.8 19.3,82.8 26,38.8 68.2,52.2 68.2,52.2 62.5,21.2 105.2,-10 105.2,-10 39.3,-27 47.2,-58.2 47.2,-58.2 -31.7,24.8 -45.4,22.5 -45.4,22.5 z M 171.6,67.8 c 3,0 5.4,2.4 5.4,5.4 0,3 -2.4,5.4 -5.4,5.4 -3,0 -5.4,-2.4 -5.4,-5.4 0,-3 2.4,-5.4 5.4,-5.4 z"
         fill="url(#a)"
         id="path17"
         style="display:none" /><path
         d="M 238.5,98.4 C 239,76.2 205.5,52.6 205.5,52.6 145.8,8.4 91.8,37 91.8,37 45.1,57.7 31.3,103 31.3,103 c -2.7,7.7 -5.1,19.5 -5.1,19.5 -2.9,14.8 -1.6,28.5 -1.6,28.5 1.2,13.1 4.1,21.9 4.1,21.9 3,9.4 4.4,12.3 4.4,12.3 -0.1,-0.3 -0.6,-2.5 -0.6,-2.5 0,0 -4.2,-20.2 -0.3,-39.6 0,0 3.4,-20.2 17.2,-35.8 0,0 22.4,-31.9 64.1,-19.4 0,0 9,3.2 12.1,4.8 3.1,1.5 8.5,3.8 8.5,3.8 29.5,14.3 54.5,18.8 54.5,18.8 52.9,8.9 49.9,-16.9 49.9,-16.9 z M 171.6,78.7 c -3,0 -5.4,-2.4 -5.4,-5.4 0,-3 2.4,-5.4 5.4,-5.4 3,0 5.4,2.4 5.4,5.4 0,3 -2.4,5.4 -5.4,5.4 z"
         fill="url(#b)"
         id="path18"
         style="display:none" /><path
         d="M 137.4,58.2 103.3,47.6 c -0.2,0 -1.2,-0.5 -3,0 0,0 -20.1,5.1 -16.6,16.1 0,0 2.1,6.9 7.8,13.6 L 129,75.5 Z"
         fill="url(#c)"
         id="path19"
         style="display:none" /><g
         id="g2"
         transform="matrix(1.2097529,0,0,1.2097529,127.14468,120.29526)"><path
           d="M 27.9,16 A 11.9,11.9 0 1 1 24.415,7.585 11.863,11.863 0 0 1 27.9,16 Z"
           style="fill:#6d9a00"
           id="path2" /><path
           d="m 11.66,15.983 a 0.938,0.938 0 0 1 0.977,-0.976 0.976,0.976 0 1 1 -0.977,0.976 z"
           style="fill:#ffffff"
           id="path3" /><path
           d="m 15.031,15.983 a 0.938,0.938 0 0 1 0.977,-0.976 0.976,0.976 0 1 1 -0.977,0.976 z"
           style="fill:#ffffff"
           id="path4" /><path
           d="M 18.4,15.983 A 0.938,0.938 0 0 1 19.377,15.007 0.976,0.976 0 1 1 18.4,15.983 Z"
           style="fill:#ffffff"
           id="path5" /><path
           d="M 7.619,16.89 V 15.142 A 2.824,2.824 0 0 0 8.5,15 a 1.126,1.126 0 0 0 0.439,-0.441 2.1,2.1 0 0 0 0.254,-0.776 9.08,9.08 0 0 0 0.055,-1.216 10.547,10.547 0 0 1 0.123,-1.97 1.847,1.847 0 0 1 0.446,-0.9 1.72,1.72 0 0 1 0.81,-0.552 4.788,4.788 0 0 1 1.316,-0.131 h 0.363 v 1.437 a 3.177,3.177 0 0 0 -0.977,0.091 0.63,0.63 0 0 0 -0.319,0.277 3.372,3.372 0 0 0 -0.1,0.941 q 0,0.459 -0.062,1.741 a 4.639,4.639 0 0 1 -0.178,1.169 2.435,2.435 0 0 1 -0.367,0.739 2.939,2.939 0 0 1 -0.682,0.6 2.432,2.432 0 0 1 0.662,0.579 2.377,2.377 0 0 1 0.394,0.8 5.8,5.8 0 0 1 0.178,1.267 q 0.048,1.209 0.048,1.544 a 3.034,3.034 0 0 0 0.11,0.932 0.694,0.694 0 0 0 0.333,0.288 2.927,2.927 0 0 0 0.963,0.1 v 1.486 H 11.946 A 3.843,3.843 0 0 1 10.654,22.813 1.905,1.905 0 0 1 9.82,22.3 1.875,1.875 0 0 1 9.364,21.4 8.724,8.724 0 0 1 9.247,19.714 8.414,8.414 0 0 0 9.137,17.973 1.553,1.553 0 0 0 8.681,17.139 2.106,2.106 0 0 0 7.619,16.89 Z"
           style="fill:#ffffff"
           id="path6" /><path
           d="m 23.285,17.143 a 1.553,1.553 0 0 0 -0.456,0.834 8.414,8.414 0 0 0 -0.11,1.741 8.724,8.724 0 0 1 -0.119,1.682 1.875,1.875 0 0 1 -0.456,0.9 1.905,1.905 0 0 1 -0.833,0.521 3.843,3.843 0 0 1 -1.292,0.192 H 19.656 V 21.53 a 2.927,2.927 0 0 0 0.963,-0.1 0.694,0.694 0 0 0 0.333,-0.288 3.034,3.034 0 0 0 0.11,-0.932 q 0,-0.335 0.048,-1.544 a 5.8,5.8 0 0 1 0.18,-1.266 2.377,2.377 0 0 1 0.394,-0.8 2.432,2.432 0 0 1 0.662,-0.579 2.939,2.939 0 0 1 -0.682,-0.6 2.435,2.435 0 0 1 -0.367,-0.739 4.639,4.639 0 0 1 -0.178,-1.169 q -0.062,-1.282 -0.062,-1.741 a 3.372,3.372 0 0 0 -0.1,-0.941 0.63,0.63 0 0 0 -0.319,-0.277 3.177,3.177 0 0 0 -0.977,-0.091 V 9.016 h 0.363 a 4.788,4.788 0 0 1 1.316,0.131 1.72,1.72 0 0 1 0.81,0.552 1.847,1.847 0 0 1 0.446,0.9 10.547,10.547 0 0 1 0.123,1.97 9.08,9.08 0 0 0 0.055,1.216 2.1,2.1 0 0 0 0.254,0.776 1.126,1.126 0 0 0 0.439,0.441 2.824,2.824 0 0 0 0.883,0.144 v 1.744 a 2.106,2.106 0 0 0 -1.065,0.253 z"
           style="fill:#ffffff"
           id="path7" /></g></g></g></svg>
