<?xml version="1.0" encoding="UTF-8" standalone="no"?>
<!-- Created with Inkscape (http://www.inkscape.org/) -->

<svg
   width="100mm"
   height="100mm"
   viewBox="0 0 100 100"
   version="1.1"
   id="svg1"
   inkscape:version="1.3.2 (091e20e, 2023-11-25, custom)"
   sodipodi:docname="ts.svg"
   xml:space="preserve"
   xmlns:inkscape="http://www.inkscape.org/namespaces/inkscape"
   xmlns:sodipodi="http://sodipodi.sourceforge.net/DTD/sodipodi-0.dtd"
   xmlns="http://www.w3.org/2000/svg"
   xmlns:svg="http://www.w3.org/2000/svg"><sodipodi:namedview
     id="namedview1"
     pagecolor="#ffffff"
     bordercolor="#000000"
     borderopacity="0.25"
     inkscape:showpageshadow="2"
     inkscape:pageopacity="0.0"
     inkscape:pagecheckerboard="false"
     inkscape:deskcolor="#d1d1d1"
     inkscape:document-units="mm"
     inkscape:zoom="1.4503086"
     inkscape:cx="219.95319"
     inkscape:cy="190.30433"
     inkscape:window-width="1920"
     inkscape:window-height="1010"
     inkscape:window-x="1913"
     inkscape:window-y="-6"
     inkscape:window-maximized="1"
     inkscape:current-layer="layer1" /><defs
     id="defs1" /><g
     inkscape:label="Layer 1"
     inkscape:groupmode="layer"
     id="layer1"><rect
       style="display:none;fill:#36363b;stroke:#e6e6e7;stroke-width:0;stroke-linecap:round;stroke-linejoin:round;paint-order:stroke fill markers"
       id="rect1"
       width="99.84539"
       height="99.84539"
       x="0.12899914"
       y="0.25799838"
       ry="15.608905" /><g
       id="g3"
       inkscape:label="miarki"
       style="display:none"><rect
         style="fill:#74000d;fill-opacity:1;stroke:#e6e6e7;stroke-width:0;stroke-linecap:round;stroke-linejoin:round;paint-order:stroke fill markers"
         id="rect2"
         width="37.92577"
         height="57.017651"
         x="-28.121826"
         y="21.15587"
         ry="0" /><rect
         style="fill:#74000d;fill-opacity:1;stroke:#e6e6e7;stroke-width:0;stroke-linecap:round;stroke-linejoin:round;paint-order:stroke fill markers"
         id="rect2-2"
         width="37.92577"
         height="57.017651"
         x="90.184807"
         y="21.603645"
         ry="0" /><rect
         style="fill:#74000d;fill-opacity:1;stroke:#e6e6e7;stroke-width:0;stroke-linecap:round;stroke-linejoin:round;paint-order:stroke fill markers"
         id="rect2-6"
         width="37.92577"
         height="57.017651"
         x="31.868204"
         y="-47.216736"
         ry="0" /><rect
         style="fill:#74000d;fill-opacity:1;stroke:#e6e6e7;stroke-width:0;stroke-linecap:round;stroke-linejoin:round;paint-order:stroke fill markers"
         id="rect2-6-8"
         width="37.92577"
         height="57.017651"
         x="31.743414"
         y="90.067574"
         ry="0" /></g><g
       id="g1"
       transform="matrix(2.3921233,0,0,2.3921233,-305.76832,-289.0337)"><path
         d="m 220.4,213.7 c 23,-10 32.8,-27.3 32.8,-27.3 21.5,-29.3 14.2,-60.2 14.2,-60.2 -13.7,29.8 -26.2,38 -26.2,38 33.7,-51.3 0.2,-82.3 0.2,-82.3 13.7,29.2 -4.5,64.8 -4.5,64.8 -15.3,32.2 -37,43.7 -37,43.7 24.2,4.5 42,-11.8 42,-11.8 -34.7,37.5 -72.3,35.7 -72.3,35.7 15.8,17.7 39.5,16.2 39.5,16.2 -31,7.3 -60.1,-3 -84,-22.9 -4.5,-3.7 -8.8,-7.7 -12.8,-12 0,0 -3.6,-3.8 -4.3,-4.8 l -0.1,-0.1 c -0.5,18.5 18.8,35.7 18.8,35.7 -24.2,-10 -35.3,-31.7 -35.3,-31.7 0,0 -16.3,-27.8 -4.5,-59.5 11.8,-31.7 47.5,-38.5 47.5,-38.5 29.5,14.3 54.5,18.8 54.5,18.8 52.7,8.8 49.7,-17 49.7,-17 0.5,-22.2 -33,-45.8 -33,-45.8 C 145.9,8.4 91.9,37 91.9,37 45.2,57.7 31.4,103 31.4,103 c -2.2,7.1 -4.2,14.1 -5.5,21.4 -5.1,29.7 2.6,57.8 19.3,82.8 26,38.8 68.2,52.2 68.2,52.2 62.5,21.2 105.2,-10 105.2,-10 39.3,-27 47.2,-58.2 47.2,-58.2 -31.7,24.8 -45.4,22.5 -45.4,22.5 z M 171.6,67.8 c 3,0 5.4,2.4 5.4,5.4 0,3 -2.4,5.4 -5.4,5.4 -3,0 -5.4,-2.4 -5.4,-5.4 0,-3 2.4,-5.4 5.4,-5.4 z"
         fill="url(#a)"
         id="path17" /><path
         d="M 238.5,98.4 C 239,76.2 205.5,52.6 205.5,52.6 145.8,8.4 91.8,37 91.8,37 45.1,57.7 31.3,103 31.3,103 c -2.7,7.7 -5.1,19.5 -5.1,19.5 -2.9,14.8 -1.6,28.5 -1.6,28.5 1.2,13.1 4.1,21.9 4.1,21.9 3,9.4 4.4,12.3 4.4,12.3 -0.1,-0.3 -0.6,-2.5 -0.6,-2.5 0,0 -4.2,-20.2 -0.3,-39.6 0,0 3.4,-20.2 17.2,-35.8 0,0 22.4,-31.9 64.1,-19.4 0,0 9,3.2 12.1,4.8 3.1,1.5 8.5,3.8 8.5,3.8 29.5,14.3 54.5,18.8 54.5,18.8 52.9,8.9 49.9,-16.9 49.9,-16.9 z M 171.6,78.7 c -3,0 -5.4,-2.4 -5.4,-5.4 0,-3 2.4,-5.4 5.4,-5.4 3,0 5.4,2.4 5.4,5.4 0,3 -2.4,5.4 -5.4,5.4 z"
         fill="url(#b)"
         id="path18" /><path
         d="M 137.4,58.2 103.3,47.6 c -0.2,0 -1.2,-0.5 -3,0 0,0 -20.1,5.1 -16.6,16.1 0,0 2.1,6.9 7.8,13.6 L 129,75.5 Z"
         fill="url(#c)"
         id="path19" /><g
         style="fill:none"
         id="g2"
         transform="matrix(0.08156027,0,0,0.08156027,127.87795,120.88224)"><rect
           fill="#3178c6"
           height="512"
           rx="81.792068"
           width="512"
           id="rect2-7"
           x="0"
           y="0"
           ry="82.07869" /><path
           clip-rule="evenodd"
           d="m 316.939,407.424 v 50.061 c 8.138,4.172 17.763,7.3 28.875,9.386 11.112,2.086 22.823,3.129 35.135,3.129 11.999,0 23.397,-1.147 34.196,-3.442 10.799,-2.294 20.268,-6.075 28.406,-11.342 8.138,-5.266 14.581,-12.15 19.328,-20.65 4.747,-8.5 7.121,-19.007 7.121,-31.522 0,-9.074 -1.356,-17.026 -4.069,-23.857 -2.713,-6.831 -6.625,-12.906 -11.738,-18.225 -5.112,-5.319 -11.242,-10.091 -18.389,-14.315 -7.147,-4.224 -15.207,-8.213 -24.18,-11.967 -6.573,-2.712 -12.468,-5.345 -17.685,-7.9 -5.217,-2.556 -9.651,-5.163 -13.303,-7.822 -3.652,-2.66 -6.469,-5.476 -8.451,-8.448 -1.982,-2.973 -2.974,-6.336 -2.974,-10.091 0,-3.441 0.887,-6.544 2.661,-9.308 1.774,-2.764 4.278,-5.136 7.512,-7.118 3.235,-1.981 7.199,-3.52 11.894,-4.615 4.696,-1.095 9.912,-1.642 15.651,-1.642 4.173,0 8.581,0.313 13.224,0.938 4.643,0.626 9.312,1.591 14.008,2.894 4.695,1.304 9.259,2.947 13.694,4.928 4.434,1.982 8.529,4.276 12.285,6.884 v -46.776 c -7.616,-2.92 -15.937,-5.084 -24.962,-6.492 -9.025,-1.408 -19.381,-2.112 -31.066,-2.112 -11.895,0 -23.163,1.278 -33.805,3.833 -10.642,2.555 -20.006,6.544 -28.093,11.967 -8.086,5.424 -14.476,12.333 -19.171,20.729 -4.695,8.395 -7.043,18.433 -7.043,30.114 0,14.914 4.304,27.638 12.912,38.172 8.607,10.533 21.675,19.45 39.204,26.751 6.886,2.816 13.303,5.579 19.25,8.291 5.947,2.712 11.086,5.528 15.415,8.448 4.33,2.92 7.747,6.101 10.252,9.543 2.504,3.441 3.756,7.352 3.756,11.733 0,3.233 -0.783,6.231 -2.348,8.995 -1.565,2.764 -3.939,5.162 -7.121,7.196 -3.182,2.034 -7.147,3.624 -11.894,4.771 -4.748,1.148 -10.303,1.721 -16.668,1.721 -10.851,0 -21.597,-1.903 -32.24,-5.71 -10.642,-3.806 -20.502,-9.516 -29.579,-17.13 z M 232.78,284.082 H 297 V 243 H 118 v 41.082 h 63.906 V 467 h 50.874 z"
           fill="#ffffff"
           fill-rule="evenodd"
           id="path2" /></g></g></g></svg>
